<svg width="84" height="84" fill="none" xmlns="http://www.w3.org/2000/svg">
  <path d="M8.05 78.697c-.986 0-1.893-.2-2.72-.6a6.978 6.978 0 01-2.1-1.62 7.49 7.49 0 01-1.36-2.32 7.623 7.623 0 01.02-5.38 7.657 7.657 0 011.42-2.3 6.688 6.688 0 012.12-1.58 5.9 5.9 0 012.64-.6c.987 0 1.887.213 2.7.64.828.413 1.527.96 2.1 1.64a7.49 7.49 0 011.36 2.32c.32.853.48 1.726.48 2.62 0 .946-.173 1.853-.52 2.72a7.344 7.344 0 01-1.4 2.3 6.857 6.857 0 01-2.1 1.58 6.069 6.069 0 01-2.64.58zm-5.26-7.2a6.7 6.7 0 00.38 2.24 6.22 6.22 0 001.08 1.9c.468.546 1.02.986 1.66 1.32.64.32 1.354.48 2.14.48.8 0 1.527-.174 2.18-.52a5.314 5.314 0 001.66-1.36c.454-.56.8-1.194 1.04-1.9a6.355 6.355 0 00-.02-4.38 5.921 5.921 0 00-1.08-1.9 5.247 5.247 0 00-1.66-1.3 4.52 4.52 0 00-2.12-.5c-.8 0-1.526.173-2.18.52a5.08 5.08 0 00-1.66 1.34 6.457 6.457 0 00-1.06 1.9 6.674 6.674 0 00-.36 2.16zM23.79 78.797c-.88 0-1.66-.22-2.34-.66a5.473 5.473 0 01-1.62-1.7v6.42h-1.36v-14.68h1.22v2.02c.427-.654.98-1.18 1.66-1.58.68-.414 1.42-.62 2.22-.62.72 0 1.38.153 1.98.46.6.293 1.12.693 1.56 1.2.44.493.78 1.066 1.02 1.72.254.653.38 1.326.38 2.02 0 .733-.113 1.426-.34 2.08a5.21 5.21 0 01-.98 1.72 4.642 4.642 0 01-1.5 1.18c-.573.28-1.206.42-1.9.42zm-.38-1.2c.56 0 1.067-.12 1.52-.36a3.72 3.72 0 001.18-.94c.334-.4.587-.847.76-1.34.174-.507.26-1.027.26-1.56a4.42 4.42 0 00-1.12-2.94 3.862 3.862 0 00-1.24-.92 3.434 3.434 0 00-1.52-.34c-.346 0-.713.073-1.1.22a4.26 4.26 0 00-1.06.56c-.32.226-.6.5-.84.82a2.196 2.196 0 00-.42.98v3.2c.16.373.36.72.6 1.04.254.32.534.6.84.84.32.226.66.406 1.02.54.36.133.734.2 1.12.2zM37.077 78.097c-.08.04-.2.093-.36.16a5.36 5.36 0 01-.52.2 6.19 6.19 0 01-.68.18 3.87 3.87 0 01-.8.08c-.293 0-.573-.04-.84-.12-.266-.08-.5-.2-.7-.36-.2-.174-.36-.387-.48-.64a2.034 2.034 0 01-.18-.88v-7.46h-1.44v-1.08h1.44v-3.52h1.36v3.52h2.4v1.08h-2.4v7.08c.027.386.16.673.4.86.254.173.54.26.86.26.387 0 .727-.06 1.02-.18.294-.134.48-.227.56-.28l.36 1.1zM40.177 78.597v-10.42h1.36v10.42h-1.36zm0-12.6v-2h1.36v2h-1.36zM45.272 71.397c0-.854.147-1.7.44-2.54a7.193 7.193 0 011.32-2.28 6.601 6.601 0 012.12-1.62c.84-.427 1.793-.64 2.86-.64 1.267 0 2.347.286 3.24.86.907.573 1.573 1.32 2 2.24l-1.1.68a4.098 4.098 0 00-.84-1.18c-.32-.32-.667-.58-1.04-.78-.373-.2-.76-.34-1.16-.42-.4-.094-.793-.14-1.18-.14-.853 0-1.607.173-2.26.52-.653.346-1.207.8-1.66 1.36a6.024 6.024 0 00-1 1.9 6.78 6.78 0 00-.34 2.12c0 .786.133 1.54.4 2.26.28.72.653 1.36 1.12 1.92.48.546 1.04.986 1.68 1.32.653.32 1.36.48 2.12.48.4 0 .807-.047 1.22-.14a5.047 5.047 0 001.22-.48c.4-.227.767-.5 1.1-.82.333-.334.613-.734.84-1.2l1.16.6a4.456 4.456 0 01-.96 1.42c-.413.4-.873.74-1.38 1.02a6.836 6.836 0 01-1.62.64c-.56.146-1.113.22-1.66.22a5.68 5.68 0 01-2.68-.64 7.1 7.1 0 01-2.1-1.66 8.087 8.087 0 01-1.38-2.34 7.788 7.788 0 01-.48-2.68zM61.043 78.597v-10.42h1.36v10.42h-1.36zm0-12.6v-2h1.36v2h-1.36zM71.799 78.097c-.08.04-.2.093-.36.16a5.36 5.36 0 01-.52.2 6.19 6.19 0 01-.68.18 3.87 3.87 0 01-.8.08c-.294 0-.574-.04-.84-.12-.267-.08-.5-.2-.7-.36-.2-.174-.36-.387-.48-.64a2.034 2.034 0 01-.18-.88v-7.46h-1.44v-1.08h1.44v-3.52h1.36v3.52h2.4v1.08h-2.4v7.08c.026.386.16.673.4.86.253.173.54.26.86.26.386 0 .726-.06 1.02-.18.293-.134.48-.227.56-.28l.36 1.1zM75.498 81.797c.106.013.206.02.3.02.106.013.206.02.3.02.24 0 .426-.034.56-.1.146-.067.286-.214.42-.44.133-.227.28-.554.44-.98.173-.427.413-1 .72-1.72l-4.54-10.42h1.4l3.86 9.16 3.58-9.16h1.3l-5.4 13.44c-.147.386-.394.72-.74 1-.334.293-.794.44-1.38.44-.134 0-.26-.007-.38-.02-.12 0-.267-.014-.44-.04v-1.2z" fill="#fff"/>
  <path fill-rule="evenodd" clip-rule="evenodd" d="M19.805 44.81c9.442 0 17.07-7.59 17.07-16.922s-7.628-16.923-17.07-16.923c-9.441 0-17.07 7.591-17.07 16.923 0 9.331 7.629 16.922 17.07 16.922zm0 2c10.532 0 19.07-8.471 19.07-18.922S30.337 8.965 19.805 8.965C9.274 8.965.735 17.437.735 27.888c0 10.45 8.539 18.922 19.07 18.922z" fill="#fff"/>
  <path fill-rule="evenodd" clip-rule="evenodd" d="M45.503 27.888c0-14.193-11.505-25.698-25.698-25.698v-2c15.297 0 27.698 12.401 27.698 27.698 0 15.296-12.4 27.697-27.698 27.697v-2c14.193 0 25.698-11.505 25.698-25.697zM77.541 5.962a25.693 25.693 0 00-26.973.104L49.51 4.37a27.686 27.686 0 0129.991.473l.839.56-5.701 8.388-.825-.55a17.437 17.437 0 00-12.228-2.742 17.346 17.346 0 00-10.887 6.156l-1.547-1.268A19.346 19.346 0 0161.293 8.52c4.44-.656 8.961.244 12.792 2.527l3.456-5.084zM63.557 46.599a19.39 19.39 0 01-12.87-5.403l1.387-1.44A17.39 17.39 0 0063.617 44.6c4.325.13 8.54-1.35 11.817-4.147l.754-.643 6.656 7.664-.768.655a27.644 27.644 0 01-18.766 6.586 27.692 27.692 0 01-10.391-2.36l.81-1.829a25.69 25.69 0 009.641 2.19 25.653 25.653 0 0016.628-5.469l-4.036-4.648a19.417 19.417 0 01-12.405 4z" fill="#fff"/>
</svg>
