<svg width="32" height="32" viewBox="0 0 32 32" fill="none" xmlns="http://www.w3.org/2000/svg">
<path d="M28.7999 27.6613L26.9676 7.02822C26.9283 6.57014 26.5422 6.22331 26.0907 6.22331H22.3214C22.269 2.78119 19.4551 0 15.9999 0C12.5447 0 9.73078 2.78119 9.67843 6.22331H5.90911C5.45103 6.22331 5.07148 6.57014 5.03221 7.02822L3.1999 27.6613C3.1999 27.6875 3.19336 27.7137 3.19336 27.7399C3.19336 30.0892 5.34632 32 7.99663 32H24.0032C26.6535 32 28.8064 30.0892 28.8064 27.7399C28.8064 27.7137 28.8064 27.6875 28.7999 27.6613ZM15.9999 1.76687C18.4801 1.76687 20.5022 3.75624 20.5545 6.22331H11.4453C11.4977 3.75624 13.5197 1.76687 15.9999 1.76687ZM24.0032 30.2331H7.99663C6.33446 30.2331 4.98641 29.1337 4.96023 27.7791L6.71401 7.99673H9.67189V10.6798C9.67189 11.1706 10.0645 11.5632 10.5553 11.5632C11.0461 11.5632 11.4388 11.1706 11.4388 10.6798V7.99673H20.5545V10.6798C20.5545 11.1706 20.9471 11.5632 21.4379 11.5632C21.9287 11.5632 22.3214 11.1706 22.3214 10.6798V7.99673H25.2792L27.0396 27.7791C27.0134 29.1337 25.6588 30.2331 24.0032 30.2331Z" fill="#002C40"/>
</svg>
